<svg width="32" height="32" viewBox="0 0 32 32" fill="none" xmlns="http://www.w3.org/2000/svg">
<path d="M17.7279 19.6873C17.8348 19.5864 18.0106 19.6368 18.0478 19.7789L18.0695 19.8617C18.1185 20.0486 18.1031 20.2467 18.0259 20.4238C17.9294 20.6451 17.7746 20.8359 17.5783 20.976C17.8293 21.1014 18.0651 21.2492 18.2764 21.4135C18.9429 21.9319 19.37 22.6175 19.2576 23.28C19.2371 23.401 19.1047 23.4549 18.9962 23.4069C17.7418 22.8516 17.021 22.6959 15.8317 22.6959C15.3808 22.6959 15.0333 22.6926 14.6413 22.7766C14.2494 22.8606 13.8121 23.032 13.1831 23.3828C13.0899 23.4348 12.9809 23.4616 12.88 23.4527C12.7788 23.4437 12.6852 23.3986 12.6253 23.3067C12.4637 23.0585 12.4764 22.76 12.611 22.4544C12.7454 22.149 13.0022 21.8346 13.3327 21.5514C13.693 21.2426 14.1421 20.9698 14.6185 20.7855C14.5891 20.7544 14.5602 20.7228 14.532 20.6904C14.4322 20.5758 14.3629 20.4378 14.3306 20.2892L14.272 20.0199C14.2256 19.8062 14.4712 19.6509 14.6443 19.7846L15.2378 20.2428C15.44 20.3989 15.6703 20.4978 15.908 20.5406C16.0164 20.5432 16.1253 20.5512 16.2343 20.5643C16.6003 20.5521 16.9616 20.4106 17.2449 20.1432L17.7279 19.6873Z" fill="currentColor"/>
<path d="M16.2704 15.1679C16.2613 14.6509 16.7075 14.243 17.2216 14.2984L20.4148 14.6423C21.3748 14.7457 21.9416 15.77 21.5194 16.6383C21.3632 16.9593 21.0348 17.1604 20.6778 17.1535L17.4467 17.0906C17.3444 17.0886 17.2631 17.1759 17.2722 17.2778L17.4083 18.7961C17.4365 19.1109 17.2236 19.3966 16.9138 19.4595C16.6194 19.5192 16.3428 19.2972 16.3376 18.9967L16.2704 15.1679Z" fill="currentColor"/>
<path d="M11.7139 14.3944C12.4003 14.2638 13.289 14.2505 14.4561 14.3025C14.7796 14.3169 14.9805 14.6589 14.8385 14.9497L14.139 16.3816C13.9274 16.8148 13.4928 17.0949 13.0108 17.1087L11.6195 17.1484C11.258 17.1587 10.9142 16.9922 10.6981 16.7022L10.1985 16.0314C10.012 15.7811 9.97745 15.4328 10.183 15.1927C10.5418 14.7736 11.0271 14.5252 11.7139 14.3944Z" fill="currentColor"/>
<path fill-rule="evenodd" clip-rule="evenodd" d="M11.8594 4.57687C13.0546 4.40088 13.3453 4.44662 15.1502 4.66409C15.2391 4.6748 15.3279 4.69361 15.4136 4.71969C16.7559 5.12835 17.5418 5.31132 18.7536 6.49279C19.8786 5.57092 22.6234 6.39522 23.7848 7.16467C25.0349 7.99279 25.6644 9.38342 25.7536 10.5709C25.8284 11.5669 25.8767 12.0902 25.8073 12.7309C25.7794 12.9889 25.7001 13.2378 25.6061 13.4797C25.4129 13.9767 25.3126 14.3542 25.2735 14.8049C25.2458 15.1243 25.2928 15.4551 25.4639 15.7263C25.6252 15.9822 25.8285 16.1381 26.1602 16.249C26.3465 16.3113 26.4848 16.4795 26.4724 16.6756C26.4384 17.2128 26.359 17.5561 26.1306 17.781L26.1298 17.7819C25.9351 17.9736 25.7286 18.177 25.6886 18.4472L25.6541 18.6802C25.6413 18.8261 25.6201 18.9688 25.5907 19.1082L25.5661 19.274L25.5519 19.2717C25.2227 20.5223 24.2081 21.4729 22.6641 21.8494C21.7271 25.1317 19.5061 27.5084 16.1442 27.5084C14.3142 27.5084 12.7319 26.961 11.5064 25.7762C10.453 24.7579 9.70152 23.3056 9.25775 21.4266C7.31821 20.8123 6.18703 19.5748 6.38141 17.8149C6.2422 17.7073 5.63628 17.2154 5.55047 16.7428C5.44318 16.1518 5.80047 15.524 6.23797 15.1022C6.51557 14.8345 6.62962 14.0699 6.6759 13.5467C6.70651 13.2006 6.64411 12.8563 6.59631 12.5122C6.53332 12.0587 6.56515 11.5902 6.68017 10.8831C6.77163 10.3208 6.9376 9.77315 7.14792 9.24374L7.44345 8.49981C7.6395 8.0063 7.86511 7.52295 8.16379 7.08389C9.10552 5.6995 9.98207 5.15994 11.5296 4.65408C11.6368 4.61903 11.7478 4.5933 11.8594 4.57687ZM18.7536 7.50842C15.7295 8.70994 12.2661 9.24018 10.0348 9.05529C9.66236 9.56338 9.41955 9.95119 9.25604 10.3416C8.9543 11.0622 8.98231 11.8708 9.05737 12.6484C9.08824 12.9682 9.1254 13.2588 9.17444 13.5468C9.30359 14.3056 9.46902 15.0673 9.42886 15.8343L10.0909 20.3535C10.4703 22.5386 11.2155 24.0606 12.2231 25.0348C13.2228 26.0012 14.5311 26.4772 16.1442 26.4772C19.2269 26.4772 21.3093 24.0506 21.9464 20.3597L22.6792 14.2904L22.6976 14.2926C22.7492 13.979 22.8284 13.6692 22.9143 13.3623C23.0721 12.7983 23.0911 12.3727 23.0973 11.7584C22.7182 9.37547 21.3342 8.68263 18.7536 7.50842ZM23.0034 20.209C23.4267 20.1636 23.7265 19.5077 23.7543 18.9735L23.1643 18.8757L23.0034 20.209ZM8.23797 18.9615L8.22381 18.9528C8.24639 19.6251 8.53974 20.0031 9.01388 20.1164L8.80856 18.7148L8.23797 18.9615Z" fill="currentColor"/>
</svg>
