<svg width="240" height="104" viewBox="0 0 240 104" fill="none" xmlns="http://www.w3.org/2000/svg">
<path d="M63.404 63.7759C63.7443 63.4542 64.3045 63.6149 64.4231 64.0682L64.4921 64.3322C64.6481 64.9285 64.5992 65.5601 64.3532 66.1252C64.0459 66.8311 63.5528 67.4396 62.9273 67.8866C63.7271 68.2865 64.4781 68.758 65.1512 69.2821C67.2746 70.9355 68.6352 73.1225 68.2772 75.2358C68.2118 75.6217 67.7902 75.7935 67.4446 75.6403C63.4483 73.8691 61.1517 73.3726 57.363 73.3726C55.9265 73.3726 54.8196 73.3621 53.5706 73.63C52.322 73.8979 50.929 74.4448 48.9251 75.5636C48.628 75.7295 48.2808 75.815 47.9593 75.7865C47.637 75.7579 47.3387 75.6141 47.1479 75.3208C46.6331 74.5292 46.6737 73.5769 47.1023 72.6024C47.5307 71.6282 48.3489 70.6254 49.4016 69.722C50.5494 68.737 51.9803 67.8667 53.498 67.2789C53.4042 67.1797 53.3122 67.0787 53.2225 66.9756C52.9044 66.6099 52.6835 66.1697 52.5806 65.6958L52.3942 64.8367C52.2462 64.1551 53.0286 63.6599 53.5801 64.0862L55.4708 65.5477C56.1151 66.0458 56.8489 66.3611 57.6061 66.4977C57.9513 66.5059 58.2984 66.5315 58.6455 66.5732C59.8115 66.5345 60.9626 66.0832 61.865 65.2303L63.404 63.7759Z" fill="currentColor"/>
<path d="M58.7605 49.3602C58.7316 47.7111 60.1532 46.4101 61.7911 46.5867L71.9638 47.6836C75.0221 48.0133 76.828 51.2806 75.4828 54.0503C74.9854 55.0744 73.9389 55.7158 72.8018 55.6937L62.5082 55.4931C62.1823 55.4868 61.923 55.7652 61.9522 56.0902L62.3858 60.9333C62.4757 61.9375 61.7972 62.8487 60.8105 63.0492C59.8723 63.2398 58.9913 62.5315 58.9745 61.5732L58.7605 49.3602Z" fill="currentColor"/>
<path d="M44.2445 46.893C46.4311 46.4764 49.2625 46.4341 52.9804 46.5998C54.0111 46.6457 54.6513 47.7367 54.1987 48.6642L51.9704 53.2315C51.2961 54.6135 49.9116 55.5068 48.376 55.5508L43.9437 55.6775C42.7921 55.7104 41.6967 55.1793 41.0085 54.2542L39.4166 52.1146C38.8227 51.3163 38.7125 50.2052 39.3675 49.4392C40.5104 48.1025 42.0564 47.31 44.2445 46.893Z" fill="currentColor"/>
<path fill-rule="evenodd" clip-rule="evenodd" d="M44.7079 15.5775C48.5158 15.0162 49.4418 15.1621 55.1919 15.8557C55.4751 15.8899 55.758 15.9499 56.0309 16.0331C60.3072 17.3366 62.8111 17.9202 66.6716 21.6888C70.2556 18.7483 79 21.3776 82.7001 23.8319C86.6824 26.4734 88.688 30.9092 88.9722 34.697C89.2105 37.8738 89.3642 39.5431 89.1433 41.5868C89.0543 42.4097 88.8019 43.2038 88.5023 43.9753C87.8867 45.5605 87.5674 46.7646 87.4428 48.2023C87.3544 49.2212 87.5043 50.2763 88.0491 51.1414C88.5633 51.9578 89.2107 52.4549 90.2675 52.8087C90.8609 53.0074 91.3017 53.544 91.2622 54.1693C91.1538 55.8827 90.9008 56.9778 90.1734 57.6953L90.1705 57.698C89.5504 58.3096 88.8926 58.9584 88.7651 59.8203L88.655 60.5635C88.6144 61.0288 88.547 61.4842 88.4531 61.9287L88.3748 62.4577L88.3296 62.4501C87.2809 66.4393 84.0485 69.4716 79.1295 70.6725C76.1444 81.1423 69.0688 88.7233 58.3586 88.7233C52.5286 88.7233 47.4875 86.977 43.5833 83.198C40.2276 79.9498 37.8334 75.3173 36.4196 69.3239C30.2406 67.3643 26.637 63.4171 27.2562 57.8035C26.8127 57.4602 24.8824 55.8911 24.609 54.3837C24.2672 52.4987 25.4055 50.4962 26.7992 49.1505C27.6836 48.2967 28.047 45.8578 28.1944 44.1889C28.2919 43.0851 28.0931 41.9868 27.9408 40.8892C27.7402 39.4428 27.8416 37.9482 28.208 35.6927C28.4994 33.8992 29.0281 32.1523 29.6981 30.4636L30.6396 28.0907C31.2642 26.5165 31.983 24.9748 32.9345 23.5743C35.9347 19.1584 38.7272 17.4374 43.6573 15.8238C43.9989 15.712 44.3524 15.6299 44.7079 15.5775ZM66.6716 24.9284C57.0374 28.761 46.0036 30.4523 38.8953 29.8626C37.7086 31.4832 36.9351 32.7202 36.4142 33.9657C35.4529 36.264 35.5421 38.8434 35.7813 41.3235C35.8796 42.3436 35.998 43.2705 36.1542 44.1894C36.5657 46.6098 37.0927 49.0395 36.9648 51.4859L39.0739 65.9011C40.2826 72.8707 42.6565 77.7257 45.8668 80.833C49.0515 83.9156 53.2194 85.4339 58.3586 85.4339C68.1794 85.4339 74.8137 77.6938 76.8433 65.9208L79.1777 46.5611L79.2365 46.5681C79.4006 45.568 79.6531 44.5799 79.9267 43.6007C80.4294 41.8019 80.4899 40.4443 80.5099 38.4848C79.3021 30.8838 74.8929 28.6739 66.6716 24.9284ZM80.2104 65.4399C81.559 65.2953 82.5143 63.2031 82.6029 61.4992L80.7233 61.187L80.2104 65.4399ZM33.1708 61.4609L33.1257 61.4331C33.1977 63.5777 34.1322 64.7832 35.6427 65.1447L34.9886 60.6738L33.1708 61.4609Z" fill="currentColor"/>
<path d="M122.556 63.8811H115.841V40.0749H118.519C119.236 40.0749 120.318 40.0478 121.765 39.9936C123.212 39.9259 124.402 39.8921 125.336 39.8921C127.959 39.8921 129.948 40.5895 131.3 41.9843C132.653 43.379 133.329 45.4712 133.329 48.2608C133.329 49.94 133.106 51.4702 132.659 52.8514C132.227 54.2191 131.638 55.3431 130.894 56.2233C130.15 57.1035 129.305 57.7806 128.358 58.2546C127.412 58.7285 126.411 58.9655 125.356 58.9655C125.221 58.9655 125.079 58.9655 124.93 58.9655C124.795 58.9655 124.666 58.9655 124.544 58.9655C124.436 58.952 124.301 58.9452 124.139 58.9452C123.99 58.9316 123.868 58.9249 123.773 58.9249C123.692 58.9113 123.571 58.9046 123.408 58.9046C123.26 58.891 123.158 58.8843 123.104 58.8843C123.05 58.8843 122.948 58.8775 122.8 58.8639C122.651 58.8504 122.57 58.8436 122.556 58.8436V63.8811ZM126.675 47.3671C126.675 46.365 126.404 45.5525 125.863 44.9296C125.322 44.3066 124.544 43.9952 123.53 43.9952H122.556V54.5577H123.307C124.375 54.5577 125.2 54.1988 125.782 53.4811C126.377 52.7634 126.675 51.7275 126.675 50.3733V47.3671Z" fill="black"/>
<path d="M143.239 61.8702C143.834 61.8702 144.287 61.6264 144.598 61.1389C144.923 60.6379 145.085 59.954 145.085 59.0874V52.6686C145.085 50.028 144.463 48.7077 143.219 48.7077C142.637 48.7077 142.184 48.9447 141.86 49.4186C141.535 49.8926 141.373 50.5629 141.373 51.4296V58.0311C141.373 60.5905 141.995 61.8702 143.239 61.8702ZM143.077 64.3077C139.98 64.3077 137.714 63.6035 136.281 62.1952C134.847 60.7869 134.13 58.5389 134.13 55.4514C134.13 52.391 134.854 50.0889 136.301 48.5452C137.748 46.9879 140.101 46.2093 143.361 46.2093C146.539 46.2093 148.832 46.954 150.238 48.4436C151.658 49.9197 152.369 52.1608 152.369 55.1671C152.369 58.2816 151.618 60.5837 150.117 62.0733C148.629 63.5629 146.282 64.3077 143.077 64.3077Z" fill="black"/>
<path d="M163.688 53.3796C163.688 51.6598 163.6 50.441 163.424 49.7233C163.248 49.0056 162.924 48.6468 162.45 48.6468C162.044 48.6468 161.713 48.7212 161.456 48.8702C161.199 49.0056 161.01 49.229 160.888 49.5405C160.766 49.8384 160.685 50.1499 160.645 50.4749C160.617 50.7863 160.604 51.1858 160.604 51.6733V53.3796H163.688ZM162.065 64.3077C160.55 64.3077 159.231 64.0775 158.109 63.6171C157 63.1566 156.12 62.5134 155.471 61.6874C154.836 60.8613 154.369 59.9337 154.071 58.9046C153.774 57.8619 153.625 56.704 153.625 55.4311C153.625 52.3978 154.396 50.1025 155.938 48.5452C157.48 46.9879 159.637 46.2093 162.41 46.2093C165.074 46.2093 166.981 46.8389 168.131 48.0983C169.28 49.3441 169.855 51.3551 169.855 54.1311V56.3858H160.584V56.7718C160.584 57.5707 160.665 58.2275 160.827 58.7421C161.003 59.2566 161.253 59.6358 161.578 59.8796C161.902 60.1233 162.234 60.2858 162.572 60.3671C162.91 60.4483 163.322 60.4889 163.809 60.4889C164.283 60.4889 164.79 60.428 165.331 60.3061C165.885 60.1843 166.44 59.9947 166.995 59.7374C167.563 59.4801 168.036 59.1754 168.415 58.8233L169.612 60.8749C169.111 61.6874 168.374 62.3712 167.4 62.9264C166.44 63.4681 165.514 63.8337 164.621 64.0233C163.728 64.2129 162.876 64.3077 162.065 64.3077Z" fill="black"/>
<path d="M178.91 64.3077C177.868 64.3077 176.895 64.2129 175.988 64.0233C175.096 63.8473 174.345 63.6103 173.737 63.3124C173.128 63.0145 172.628 62.7301 172.235 62.4593C171.857 62.1884 171.539 61.9176 171.282 61.6468L171.789 56.7108C172.344 57.4556 173.087 58.1056 174.021 58.6608C174.954 59.2025 175.961 59.4733 177.043 59.4733C178.125 59.4733 178.903 59.3582 179.376 59.128C179.863 58.8978 180.107 58.478 180.107 57.8686C180.107 57.2186 179.83 56.6634 179.275 56.203C178.734 55.7426 177.794 55.1874 176.455 54.5374C175.968 54.2936 175.556 54.077 175.218 53.8874C174.879 53.6842 174.426 53.3593 173.858 52.9124C173.304 52.452 172.851 51.978 172.499 51.4905C172.147 50.9895 171.836 50.353 171.566 49.5811C171.295 48.7957 171.16 47.9561 171.16 47.0624C171.16 42.228 173.885 39.8108 179.336 39.8108C180.202 39.8108 181.013 39.9056 181.77 40.0952C182.541 40.2712 183.143 40.4676 183.576 40.6842C184.009 40.9009 184.401 41.1582 184.753 41.4561C185.118 41.7405 185.348 41.9436 185.442 42.0655C185.537 42.1738 185.605 42.2619 185.645 42.3296L184.631 46.2499C184.103 45.627 183.441 45.1665 182.643 44.8686C181.858 44.5572 181.108 44.4014 180.391 44.4014C178.66 44.4014 177.794 44.9431 177.794 46.0264C177.794 46.3108 177.848 46.5681 177.956 46.7983C178.065 47.0285 178.24 47.2384 178.484 47.428C178.727 47.6176 178.95 47.7801 179.153 47.9155C179.37 48.0509 179.661 48.2202 180.026 48.4233C180.404 48.6129 180.688 48.7686 180.878 48.8905C182.852 49.7301 184.3 50.7254 185.219 51.8764C186.152 53.0275 186.619 54.429 186.619 56.0811C186.619 58.7624 185.956 60.8072 184.631 62.2155C183.319 63.6103 181.412 64.3077 178.91 64.3077Z" fill="black"/>
<path d="M198.101 53.3796C198.101 51.6598 198.013 50.441 197.837 49.7233C197.661 49.0056 197.337 48.6468 196.863 48.6468C196.458 48.6468 196.126 48.7212 195.869 48.8702C195.612 49.0056 195.423 49.229 195.301 49.5405C195.18 49.8384 195.098 50.1499 195.058 50.4749C195.031 50.7863 195.017 51.1858 195.017 51.6733V53.3796H198.101ZM196.478 64.3077C194.963 64.3077 193.644 64.0775 192.522 63.6171C191.413 63.1566 190.534 62.5134 189.885 61.6874C189.249 60.8613 188.782 59.9337 188.485 58.9046C188.187 57.8619 188.038 56.704 188.038 55.4311C188.038 52.3978 188.809 50.1025 190.351 48.5452C191.893 46.9879 194.05 46.2093 196.823 46.2093C199.487 46.2093 201.394 46.8389 202.544 48.0983C203.694 49.3441 204.268 51.3551 204.268 54.1311V56.3858H194.997V56.7718C194.997 57.5707 195.078 58.2275 195.24 58.7421C195.416 59.2566 195.666 59.6358 195.991 59.8796C196.316 60.1233 196.647 60.2858 196.985 60.3671C197.323 60.4483 197.736 60.4889 198.223 60.4889C198.696 60.4889 199.203 60.428 199.744 60.3061C200.299 60.1843 200.853 59.9947 201.408 59.7374C201.976 59.4801 202.449 59.1754 202.828 58.8233L204.025 60.8749C203.524 61.6874 202.787 62.3712 201.814 62.9264C200.853 63.4681 199.927 63.8337 199.034 64.0233C198.142 64.2129 197.289 64.3077 196.478 64.3077Z" fill="black"/>
<path d="M211.213 64.3077C209.387 64.3077 208.109 63.7593 207.379 62.6624C206.662 61.5655 206.304 59.7103 206.304 57.0967V50.1905H204.904V47.3671L207.298 46.6155L209.367 41.8827H212.938V46.6155H216.265V50.1905H212.877V57.7467C212.877 58.8301 213.032 59.5478 213.343 59.8999C213.655 60.252 214.135 60.428 214.784 60.428C215.068 60.428 215.325 60.3941 215.555 60.3264C215.785 60.2587 215.974 60.1639 216.123 60.0421V62.8046C215.92 63.0077 215.656 63.2108 215.332 63.4139C215.007 63.6035 214.466 63.7999 213.709 64.003C212.965 64.2061 212.133 64.3077 211.213 64.3077Z" fill="black"/>
</svg>
